<svg preserveAspectRatio="none" width="100%" height="100%" overflow="visible" style="display: block;" viewBox="0 0 28 28" fill="none" xmlns="http://www.w3.org/2000/svg">
<g id="material-symbols:bookmark-outline-rounded">
<path id="Vector" d="M14 21L9.1 23.1C8.32222 23.4306 7.58333 23.3676 6.88333 22.911C6.18333 22.4544 5.83333 21.8077 5.83333 20.9708V5.83333C5.83333 5.19167 6.062 4.64256 6.51933 4.186C6.97667 3.72944 7.52578 3.50078 8.16667 3.5H19.8333C20.475 3.5 21.0245 3.72867 21.4818 4.186C21.9392 4.64333 22.1674 5.19244 22.1667 5.83333V20.9708C22.1667 21.8069 21.8167 22.4537 21.1167 22.911C20.4167 23.3683 19.6778 23.4313 18.9 23.1L14 21ZM14 18.4333L19.8333 20.9417V5.83333H8.16667V20.9417L14 18.4333ZM14 5.83333H8.16667H19.8333H14Z" fill="var(--fill-0, #15182F)"/>
</g>
</svg>
