<svg preserveAspectRatio="none" width="100%" height="100%" overflow="visible" style="display: block;" viewBox="0 0 80 80" fill="none" xmlns="http://www.w3.org/2000/svg">
<g id="Group 5">
<circle id="Ellipse 2" cx="40" cy="40" r="40" fill="var(--fill-0, #721F24)"/>
<g id="stars">
<rect width="52" height="52" transform="translate(14.5 14)" fill="#721F24"/>
<path id="Vector" d="M21 40C30.75 40 40.5 30.25 40.5 20.5C40.5 30.25 50.25 40 60 40C50.25 40 40.5 49.75 40.5 59.5C40.5 49.75 30.75 40 21 40Z" stroke="var(--stroke-0, white)" stroke-width="3" stroke-linejoin="round"/>
<path id="Vector_2" d="M18.8333 56.25C20.6389 56.25 24.25 52.6388 24.25 50.8333C24.25 52.6388 27.8611 56.25 29.6667 56.25C27.8611 56.25 24.25 59.8612 24.25 61.6667C24.25 59.8612 20.6389 56.25 18.8333 56.25Z" stroke="var(--stroke-0, white)" stroke-width="3" stroke-linejoin="round"/>
<path id="Vector_3" d="M49.1667 24.8333C51.3333 24.8333 55.6667 20.5 55.6667 18.3333C55.6667 20.5 60 24.8333 62.1667 24.8333C60 24.8333 55.6667 29.1667 55.6667 31.3333C55.6667 29.1667 51.3333 24.8333 49.1667 24.8333Z" stroke="var(--stroke-0, white)" stroke-width="3" stroke-linejoin="round"/>
</g>
</g>
</svg>
