<svg preserveAspectRatio="none" width="100%" height="100%" overflow="visible" style="display: block;" viewBox="0 0 19 19" fill="none" xmlns="http://www.w3.org/2000/svg">
<g id="Group">
<path id="Vector" d="M4.83398 7.38919C4.83398 6.71133 5.10326 6.06123 5.58258 5.58191C6.0619 5.10259 6.712 4.83331 7.38986 4.83331H15.6948C16.0304 4.83331 16.3628 4.89942 16.6729 5.02787C16.983 5.15631 17.2647 5.34458 17.5021 5.58191C17.7394 5.81925 17.9277 6.101 18.0561 6.4111C18.1845 6.72119 18.2507 7.05355 18.2507 7.38919V15.6941C18.2507 16.0297 18.1845 16.3621 18.0561 16.6722C17.9277 16.9823 17.7394 17.264 17.5021 17.5014C17.2647 17.7387 16.983 17.927 16.6729 18.0554C16.3628 18.1839 16.0304 18.25 15.6948 18.25H7.38986C7.05422 18.25 6.72186 18.1839 6.41177 18.0554C6.10168 17.927 5.81992 17.7387 5.58258 17.5014C5.34525 17.264 5.15698 16.9823 5.02854 16.6722C4.90009 16.3621 4.83398 16.0297 4.83398 15.6941V7.38919Z" stroke="var(--stroke-0, #17365F)" stroke-width="1.5" stroke-linecap="round" stroke-linejoin="round"/>
<path id="Vector_2" d="M1.96983 14.1646C1.67562 13.9975 1.43091 13.7554 1.26057 13.463C1.09023 13.1706 1.00033 12.8384 1 12.5V2.91667C1 1.8625 1.8625 1 2.91667 1H12.5C13.2188 1 13.6098 1.36896 13.9375 1.95833" stroke="var(--stroke-0, #17365F)" stroke-width="1.5" stroke-linecap="round" stroke-linejoin="round"/>
</g>
</svg>
