<svg preserveAspectRatio="none" width="100%" height="100%" overflow="visible" style="display: block;" viewBox="0 0 19 19" fill="none" xmlns="http://www.w3.org/2000/svg">
<g id="03 Login">
<path id="Vector" d="M9.49864 19C9.25259 19 9.01662 18.9023 8.84263 18.7283C8.66865 18.5543 8.57091 18.3183 8.57091 18.0723V0.927734C8.57091 0.681684 8.66865 0.445711 8.84263 0.271727C9.01662 0.0977432 9.25259 0 9.49864 0C9.74469 0 9.98067 0.0977432 10.1546 0.271727C10.3286 0.445711 10.4264 0.681684 10.4264 0.927734V18.0723C10.4264 18.3183 10.3286 18.5543 10.1546 18.7283C9.98067 18.9023 9.74469 19 9.49864 19Z" fill="var(--fill-0, #721F23)"/>
<path id="Vector_2" d="M18.0723 10.4264H0.927734C0.681684 10.4264 0.445711 10.3286 0.271727 10.1546C0.0977432 9.98067 0 9.74469 0 9.49864C0 9.25259 0.0977432 9.01662 0.271727 8.84263C0.445711 8.66865 0.681684 8.57091 0.927734 8.57091H18.0723C18.3183 8.57091 18.5543 8.66865 18.7283 8.84263C18.9023 9.01662 19 9.25259 19 9.49864C19 9.74469 18.9023 9.98067 18.7283 10.1546C18.5543 10.3286 18.3183 10.4264 18.0723 10.4264Z" fill="var(--fill-0, #721F23)"/>
</g>
</svg>
