<svg preserveAspectRatio="none" width="100%" height="100%" overflow="visible" style="display: block;" viewBox="0 0 20 20" fill="none" xmlns="http://www.w3.org/2000/svg">
<g id="file-text">
<path id="Vector" d="M11.6663 1.66666H4.99967C4.55765 1.66666 4.13372 1.84225 3.82116 2.15481C3.5086 2.46737 3.33301 2.8913 3.33301 3.33332V16.6667C3.33301 17.1087 3.5086 17.5326 3.82116 17.8452C4.13372 18.1577 4.55765 18.3333 4.99967 18.3333H14.9997C15.4417 18.3333 15.8656 18.1577 16.1782 17.8452C16.4907 17.5326 16.6663 17.1087 16.6663 16.6667V6.66666L11.6663 1.66666Z" stroke="var(--stroke-0, #721F23)" stroke-width="1.5" stroke-linecap="round" stroke-linejoin="round"/>
<path id="Vector_2" d="M11.667 1.66666V6.66666H16.667" stroke="var(--stroke-0, #721F23)" stroke-width="1.5" stroke-linecap="round" stroke-linejoin="round"/>
<path id="Vector_3" d="M13.3337 10.8333H6.66699" stroke="var(--stroke-0, #721F23)" stroke-width="1.5" stroke-linecap="round" stroke-linejoin="round"/>
<path id="Vector_4" d="M13.3337 14.1667H6.66699" stroke="var(--stroke-0, #721F23)" stroke-width="1.5" stroke-linecap="round" stroke-linejoin="round"/>
<path id="Vector_5" d="M8.33366 7.5H7.50033H6.66699" stroke="var(--stroke-0, #721F23)" stroke-width="1.5" stroke-linecap="round" stroke-linejoin="round"/>
</g>
</svg>
