<svg preserveAspectRatio="none" width="100%" height="100%" overflow="visible" style="display: block;" viewBox="0 0 14 11" fill="none" xmlns="http://www.w3.org/2000/svg">
<g id="Group">
<path id="Vector" d="M13.44 0.741176C13.44 0.321176 13.1188 0 12.6988 0C12.2788 0 11.9576 0.321176 11.9576 0.741176C11.9576 3.63176 9.61059 5.97882 6.72 5.97882C3.82941 5.97882 1.48235 3.63176 1.48235 0.741176C1.48235 0.321176 1.16118 0 0.741176 0C0.321176 0 0 0.321176 0 0.741176C0 4.17529 2.56941 7.06588 5.97882 7.43647V9.41294H3.28588C2.86588 9.41294 2.54471 9.73412 2.54471 10.1541C2.54471 10.5741 2.86588 10.8953 3.28588 10.8953H10.1541C10.5741 10.8953 10.8953 10.5741 10.8953 10.1541C10.8953 9.73412 10.5741 9.41294 10.1541 9.41294H7.46118V7.43647C10.8706 7.06588 13.44 4.17529 13.44 0.741176Z" fill="var(--fill-0, #17365F)"/>
</g>
</svg>
