<svg preserveAspectRatio="none" width="100%" height="100%" overflow="visible" style="display: block;" viewBox="0 0 18 17" fill="none" xmlns="http://www.w3.org/2000/svg">
<g id="Group">
<path id="Vector" d="M11.2604 6.46971L10.5513 6.35183C10.5341 6.4548 10.5396 6.56025 10.5674 6.66086C10.5952 6.76148 10.6445 6.85484 10.712 6.93446C10.7795 7.01408 10.8635 7.07804 10.9582 7.12191C11.0529 7.16577 11.156 7.18848 11.2604 7.18846V6.46971ZM0.71875 6.46971V5.75096C0.528126 5.75096 0.345309 5.82669 0.210517 5.96148C0.0757251 6.09627 0 6.27909 0 6.46971H0.71875ZM2.63542 16.7718H13.5221V15.3343H2.63542V16.7718ZM14.6721 5.75096H11.2604V7.18846H14.6721V5.75096ZM11.9696 6.58758L12.742 1.95404L11.3237 1.71733L10.5513 6.35183L11.9696 6.58758ZM11.0879 0.000958264H10.8828V1.43846H11.087L11.0879 0.000958264ZM7.89187 1.60138L5.48167 5.21717L6.67767 6.0145L9.08787 2.39871L7.89187 1.60138ZM4.485 5.75096H0.71875V7.18846H4.485V5.75096ZM0 6.46971V14.1364H1.4375V6.46971H0ZM16.1067 14.6539L17.2567 8.90388L15.848 8.62117L14.698 14.3712L16.1067 14.6539ZM5.48167 5.21717C5.37232 5.38131 5.22414 5.51497 5.05027 5.60808C4.8764 5.7012 4.68223 5.74995 4.485 5.75V7.1875C5.36667 7.1875 6.18892 6.74763 6.67767 6.0145L5.48167 5.21717ZM12.742 1.95404C12.7819 1.71385 12.7691 1.46689 12.7044 1.23217C12.6396 0.997448 12.5246 0.779636 12.3671 0.59387C12.2097 0.408104 12.0138 0.25884 11.7929 0.15645C11.572 0.0540606 11.3314 0.00100078 11.0879 0.000958264L11.087 1.43846C11.1217 1.43854 11.157 1.44618 11.1884 1.46084C11.2199 1.47551 11.2479 1.49684 11.2703 1.52337C11.2927 1.5499 11.3091 1.58098 11.3183 1.61448C11.3275 1.64797 11.3294 1.68307 11.3237 1.71733L12.742 1.95404ZM14.6721 7.1875C15.4292 7.1875 15.9946 7.87942 15.847 8.62021L17.2567 8.90292C17.333 8.52063 17.3235 8.12523 17.2289 7.74706C17.1343 7.36888 16.9571 7.0164 16.7098 6.715C16.4626 6.41361 16.1516 6.17081 15.7992 6.0041C15.4469 5.8374 15.0619 5.75094 14.6721 5.75096V7.1875ZM13.5221 16.7718C14.1313 16.7719 14.7217 16.56 15.193 16.1739C15.6642 15.7877 15.9871 15.2503 16.1067 14.6529L14.698 14.3702C14.6436 14.642 14.4968 14.8865 14.2823 15.0622C14.0679 15.2378 13.7992 15.3346 13.5221 15.3343V16.7718ZM10.8828 0.000958264C10.2912 0.00100124 9.70877 0.146141 9.18718 0.425328C8.66558 0.704514 8.22098 1.10815 7.89283 1.60042L9.08787 2.39871C9.28485 2.10322 9.55177 1.85999 9.8649 1.69247C10.178 1.52495 10.5277 1.43833 10.8828 1.43846V0.000958264ZM2.63542 15.3343C1.97417 15.3343 1.4375 14.7976 1.4375 14.1364H0C0 14.8353 0.277659 15.5057 0.771895 15.9999C1.26613 16.4941 1.93646 16.7718 2.63542 16.7718V15.3343Z" fill="var(--fill-0, #17365F)"/>
<path id="Vector_2" d="M4.55273 6.46973V16.0531" stroke="var(--stroke-0, #17365F)" stroke-width="1.5"/>
</g>
</svg>
