<svg preserveAspectRatio="none" width="100%" height="100%" overflow="visible" style="display: block;" viewBox="0 0 28 28" fill="none" xmlns="http://www.w3.org/2000/svg">
<g id="material-symbols:mail-outline-rounded">
<path id="Vector" d="M4.66667 23.3333C4.025 23.3333 3.47589 23.1051 3.01933 22.6485C2.56278 22.1919 2.33411 21.6424 2.33333 21V7C2.33333 6.35833 2.562 5.80922 3.01933 5.35267C3.47667 4.89611 4.02578 4.66744 4.66667 4.66667H23.3333C23.975 4.66667 24.5245 4.89533 24.9818 5.35267C25.4392 5.81 25.6674 6.35911 25.6667 7V21C25.6667 21.6417 25.4384 22.1912 24.9818 22.6485C24.5253 23.1058 23.9758 23.3341 23.3333 23.3333H4.66667ZM23.3333 9.33333L14.6125 14.7875C14.5153 14.8458 14.4134 14.8898 14.3068 14.9193C14.2003 14.9489 14.098 14.9633 14 14.9625C13.902 14.9617 13.8001 14.9473 13.6943 14.9193C13.5886 14.8913 13.4863 14.8474 13.3875 14.7875L4.66667 9.33333V21H23.3333V9.33333ZM14 12.8333L23.3333 7H4.66667L14 12.8333ZM4.66667 9.625V7.90417V7.93333V7.91933V9.625Z" fill="var(--fill-0, #15182F)"/>
</g>
</svg>
