<svg preserveAspectRatio="none" width="100%" height="100%" overflow="visible" style="display: block;" viewBox="0 0 20 21" fill="none" xmlns="http://www.w3.org/2000/svg">
<g id="paperclip">
<path id="Vector" d="M17.8667 9.66875L10.2083 17.71C9.27013 18.6951 7.99765 19.2485 6.67083 19.2485C5.34401 19.2485 4.07154 18.6951 3.13333 17.71C2.19513 16.7249 1.66805 15.3888 1.66805 13.9956C1.66805 12.6025 2.19513 11.2664 3.13333 10.2813L10.7917 2.24C11.4171 1.58326 12.2655 1.2143 13.15 1.2143C14.0345 1.2143 14.8829 1.58326 15.5083 2.24C16.1338 2.89674 16.4852 3.78748 16.4852 4.71625C16.4852 5.64502 16.1338 6.53576 15.5083 7.1925L7.84167 15.2338C7.52893 15.5621 7.10477 15.7466 6.6625 15.7466C6.22023 15.7466 5.79607 15.5621 5.48333 15.2338C5.1706 14.9054 4.99491 14.46 4.99491 13.9956C4.99491 13.5312 5.1706 13.0859 5.48333 12.7575L12.5583 5.3375" stroke="var(--stroke-0, #17365F)" stroke-width="2" stroke-linecap="round" stroke-linejoin="round"/>
</g>
</svg>
