<svg preserveAspectRatio="none" width="100%" height="100%" overflow="visible" style="display: block;" viewBox="0 0 23 23" fill="none" xmlns="http://www.w3.org/2000/svg">
<g id="tabler:refresh">
<path id="Vector" d="M18.6673 10.5417C18.433 8.85521 17.6506 7.29259 16.4408 6.09452C15.2309 4.89645 13.6608 4.12938 11.9721 3.91149C10.2834 3.6936 8.56996 4.03696 7.09564 4.8887C5.62132 5.74043 4.46793 7.05328 3.81315 8.625M3.33398 4.79167V8.625H7.16732M3.33398 12.4583C3.56835 14.1448 4.35071 15.7074 5.56054 16.9055C6.77037 18.1036 8.34055 18.8706 10.0292 19.0885C11.7179 19.3064 13.4314 18.963 14.9057 18.1113C16.38 17.2596 17.5334 15.9467 18.1882 14.375M18.6673 18.2083V14.375H14.834" stroke="var(--stroke-0, #17365F)" stroke-width="1.5" stroke-linecap="round" stroke-linejoin="round"/>
</g>
</svg>
